<svg
  xmlns="http://www.w3.org/2000/svg"
  width="42.667"
  height="42.667"
  version="1.0"
  viewBox="0 0 32 32"
>
  <circle cx="16" cy="16" r="16" fill="#FCFC03" />
  <path
    d="M7.4 10.5c-1.7 1.3-1.1 1.4 6.9 1.5 6.6 0 8.8.3 8.5 1.2-.3.7-2.1 1.4-4.1 1.6-4.5.4-5 2.2-.6 2.2 2.3 0 3 .4 2.7 1.6-.2 1.2-1.5 1.7-5.1 1.8l-4.8.1.6-3.8c.9-5.3-1-4.7-2.9 1-.9 2.6-1.6 4.8-1.6 5 0 .2 3.1.3 6.9.3 5 0 7.4-.4 8.5-1.6 1.9-1.9 2.1-4.1.4-4.6-.8-.3-.4-.9 1-1.7 2.5-1.4 2.9-4.6.6-5.5-3.2-1.2-15-.6-17 .9z"
  />
</svg>
