<?xml version="1.0" standalone="no"?>
<!DOCTYPE svg PUBLIC "-//W3C//DTD SVG 20010904//EN"
 "http://www.w3.org/TR/2001/REC-SVG-20010904/DTD/svg10.dtd">
<svg version="1.0" xmlns="http://www.w3.org/2000/svg"
 width="512.000000pt" height="512.000000pt" viewBox="0 0 512.000000 512.000000"
 preserveAspectRatio="xMidYMid meet">

<g transform="translate(0.000000,512.000000) scale(0.100000,-0.100000)"
fill="#000000" stroke="none">
<path d="M2220 4500 c-120 -22 -294 -71 -354 -102 -61 -30 -160 -103 -190
-139 -17 -20 -25 -38 -21 -50 6 -18 0 -19 -100 -19 -81 0 -106 -3 -103 -12 3
-9 37 -14 113 -16 60 -1 114 -7 120 -12 8 -7 18 0 33 19 48 66 268 190 487
275 66 26 136 53 155 61 l35 14 -35 0 c-19 0 -82 -9 -140 -19z"/>
<path d="M2696 4480 c-471 -140 -818 -291 -920 -399 l-30 -31 -239 0 c-186 0
-238 -3 -235 -12 4 -10 62 -14 238 -16 229 -2 249 -5 250 -34 0 -5 -126 -8
-280 -8 -180 0 -280 -4 -280 -10 0 -6 103 -10 289 -10 l290 0 38 35 c119 109
543 272 1046 400 119 31 187 53 187 61 0 14 -111 42 -198 49 -44 4 -80 -2
-156 -25z"/>
<path d="M3210 4338 c-350 -75 -803 -198 -1008 -274 -147 -54 -313 -139 -362
-184 l-43 -40 -364 0 c-235 0 -363 -4 -363 -10 0 -6 131 -10 373 -10 379 0
397 -2 397 -37 0 -10 -81 -13 -415 -13 -270 0 -415 -3 -415 -10 0 -7 147 -10
420 -10 353 0 420 2 420 14 0 34 193 130 400 199 255 86 737 204 1108 273 92
17 152 32 152 39 0 7 -31 26 -68 44 -74 33 -140 39 -232 19z"/>
<path d="M1562 4248 c3 -7 22 -14 42 -16 28 -2 37 0 34 10 -3 7 -22 14 -42 16
-28 2 -37 0 -34 -10z"/>
<path d="M3485 4120 c-494 -86 -961 -193 -1242 -285 -246 -80 -363 -140 -363
-187 0 -17 -22 -18 -485 -18 -317 0 -485 -3 -485 -10 0 -7 170 -10 490 -10
388 0 492 -3 496 -13 3 -9 29 -1 92 30 229 110 774 242 1477 357 356 59 360
59 360 70 0 6 -24 29 -53 53 -63 52 -64 52 -287 13z"/>
<path d="M1362 4108 c4 -10 48 -14 177 -16 137 -2 172 0 169 10 -4 10 -48 14
-177 16 -137 2 -172 0 -169 -10z"/>
<path d="M1130 3900 c0 -6 119 -10 336 -10 221 0 333 3 329 10 -4 6 -127 10
-336 10 -213 0 -329 -4 -329 -10z"/>
<path d="M3500 3849 c-495 -76 -720 -117 -1010 -186 -228 -54 -423 -114 -502
-154 -37 -19 -60 -20 -598 -19 -370 0 -560 -3 -560 -10 0 -6 190 -11 552 -12
517 -3 553 -4 556 -20 3 -17 -29 -18 -567 -18 -521 0 -606 -4 -572 -24 5 -3
269 -6 587 -6 l579 0 100 36 c279 98 779 195 1545 298 467 64 460 62 460 78 0
6 -20 30 -44 54 -40 40 -47 44 -92 43 -27 0 -222 -27 -434 -60z"/>
<path d="M960 3690 c0 -7 158 -10 455 -10 297 0 455 3 455 10 0 7 -158 10
-455 10 -297 0 -455 -3 -455 -10z"/>
<path d="M3795 3624 c-930 -119 -1525 -224 -1740 -306 -60 -23 -63 -23 -689
-28 -491 -4 -630 -8 -634 -17 -3 -10 126 -13 622 -13 619 0 626 0 626 -20 0
-20 -7 -20 -635 -20 -558 0 -635 -2 -635 -15 0 -13 77 -15 632 -15 l631 0 71
24 c230 79 923 185 2001 307 105 12 194 25 199 30 9 8 -12 48 -47 87 -28 30
-76 28 -402 -14z"/>
<path d="M870 3550 c0 -7 180 -10 520 -10 340 0 520 3 520 10 0 7 -180 10
-520 10 -340 0 -520 -3 -520 -10z"/>
<path d="M4005 3379 c-1100 -115 -1851 -223 -1979 -284 -26 -13 -132 -15 -696
-17 -435 -2 -665 -6 -665 -13 0 -7 233 -11 673 -13 664 -2 672 -2 672 -22 0
-20 -7 -20 -680 -20 -598 0 -680 -2 -680 -15 0 -13 82 -15 681 -15 574 0 684
2 693 14 32 40 945 158 1951 252 215 19 394 39 398 43 4 4 -1 28 -12 53 -14
34 -27 48 -52 57 -17 6 -32 10 -33 10 -1 -1 -122 -14 -271 -30z"/>
<path d="M767 3353 c-4 -3 -7 -10 -7 -15 0 -4 270 -8 600 -8 527 0 600 2 600
15 0 13 -73 15 -593 15 -327 0 -597 -3 -600 -7z"/>
<path d="M687 3144 c-4 -4 -4 -11 -1 -15 3 -5 300 -9 660 -9 520 0 655 3 652
13 -4 9 -145 13 -655 15 -357 1 -652 -1 -656 -4z"/>
<path d="M4190 3129 c-1049 -96 -1639 -155 -1927 -194 -222 -30 -233 -33 -233
-51 0 -12 -112 -14 -702 -16 -550 -2 -702 -6 -706 -15 -3 -10 142 -13 702 -13
621 0 706 -2 706 -15 0 -18 26 -19 122 -5 37 5 251 26 475 45 225 20 532 46
683 60 151 13 336 29 410 34 540 43 641 51 689 57 l53 6 -5 40 c-9 64 -29 78
-106 77 -36 -1 -109 -6 -161 -10z"/>
<path d="M637 2934 c-4 -4 -4 -11 -1 -15 3 -5 315 -9 695 -9 606 0 689 2 689
15 0 13 -83 15 -688 15 -379 0 -692 -3 -695 -6z"/>
<path d="M3965 2839 c-203 -15 -701 -51 -1105 -79 -404 -27 -754 -53 -777 -56
-35 -4 -43 -2 -43 10 0 15 -71 16 -717 14 -470 -2 -718 -6 -718 -13 0 -7 248
-11 718 -13 709 -2 717 -2 717 -22 0 -20 -7 -20 -720 -20 -633 0 -720 -2 -720
-15 0 -13 87 -15 719 -15 533 0 720 -3 723 -11 3 -9 73 -9 283 0 596 25 2152
122 2173 135 15 9 15 56 2 90 -9 25 -13 26 -87 25 -43 -1 -244 -14 -448 -30z"/>
<path d="M617 2793 c-4 -3 -7 -10 -7 -15 0 -4 320 -8 710 -8 624 0 710 2 710
15 0 13 -85 15 -703 15 -387 0 -707 -3 -710 -7z"/>
<path d="M4320 2594 c-8 -2 -235 -15 -505 -29 -1185 -61 -1189 -61 -2478 -50
-656 5 -737 4 -737 -10 0 -13 81 -15 720 -15 713 0 720 0 720 -20 0 -20 -7
-20 -721 -20 -572 0 -720 -3 -717 -12 4 -10 163 -15 729 -20 398 -4 870 -10
1049 -13 418 -9 821 4 1975 61 72 4 138 11 148 16 15 7 17 19 15 61 l-3 52
-90 2 c-49 0 -97 -1 -105 -3z"/>
<path d="M600 2575 c0 -13 87 -15 720 -15 633 0 720 2 720 15 0 13 -87 15
-720 15 -633 0 -720 -2 -720 -15z"/>
<path d="M610 2365 c0 -13 83 -15 712 -13 558 2 712 6 716 16 3 9 -144 12
-712 12 -631 0 -716 -2 -716 -15z"/>
<path d="M4160 2315 c-730 -36 -1942 -46 -2075 -16 -67 15 -1465 11 -1465 -4
0 -7 243 -11 705 -13 697 -2 705 -2 705 -22 0 -20 -7 -20 -700 -20 -616 0
-700 -2 -700 -15 0 -13 85 -15 704 -15 388 0 725 -4 752 -9 27 -5 123 -15 214
-23 224 -18 1364 -15 1829 5 384 16 371 13 371 87 0 44 -15 60 -54 59 -17 -1
-146 -7 -286 -14z"/>
<path d="M642 2158 c4 -10 153 -14 691 -16 607 -2 687 0 687 13 0 13 -82 15
-691 15 -548 0 -690 -3 -687 -12z"/>
<path d="M657 2094 c-3 -4 -4 -11 -1 -15 3 -5 309 -9 680 -9 638 0 675 -1 672
-17 -3 -17 -44 -18 -671 -21 -433 -1 -667 -6 -667 -12 0 -7 232 -10 668 -10
554 0 676 -3 722 -15 77 -20 343 -52 540 -65 190 -12 1789 -14 1807 -2 24 15
44 81 33 103 -11 19 -16 20 -313 12 -461 -12 -1413 -9 -1647 5 -113 7 -252 20
-310 29 -88 14 -217 17 -806 20 -385 2 -703 0 -707 -3z"/>
<path d="M695 1950 c-4 -7 213 -10 644 -10 427 0 651 3 651 10 0 7 -221 10
-644 10 -419 0 -647 -4 -651 -10z"/>
<path d="M1353 1893 c-411 -2 -633 -7 -633 -13 0 -7 218 -10 623 -10 343 0
626 -3 629 -6 3 -3 4 -14 1 -25 -5 -19 -20 -19 -614 -19 -405 0 -609 -3 -609
-10 0 -7 209 -10 624 -10 363 0 633 -3 648 -9 42 -16 214 -51 351 -71 317 -46
774 -68 1547 -73 l374 -2 23 35 c14 19 23 45 21 60 l-3 25 -670 6 c-678 6
-845 13 -1215 50 -216 22 -332 40 -401 64 -23 8 -47 14 -53 13 -6 -2 -296 -4
-643 -5z"/>
<path d="M780 1740 c0 -7 202 -10 585 -10 383 0 585 3 585 10 0 7 -202 10
-585 10 -383 0 -585 -3 -585 -10z"/>
<path d="M1940 1691 c0 -8 -159 -11 -565 -11 -370 0 -565 -3 -565 -10 0 -7
194 -10 561 -10 l560 0 -3 -22 -3 -23 -537 -3 c-347 -1 -538 -6 -538 -12 0 -7
188 -10 535 -10 329 0 535 4 535 9 0 6 24 0 53 -13 211 -93 774 -171 1482
-206 422 -20 630 -24 656 -10 58 30 88 99 52 118 -10 5 -200 12 -423 15 -762
11 -1347 67 -1682 161 -46 13 -91 27 -100 31 -11 4 -18 3 -18 -4z"/>
<path d="M890 1530 c0 -7 175 -10 505 -10 330 0 505 3 505 10 0 7 -175 10
-505 10 -330 0 -505 -3 -505 -10z"/>
<path d="M1890 1490 c0 -6 -166 -11 -477 -12 -370 -2 -477 -6 -481 -15 -3 -10
95 -13 467 -13 l471 0 0 -25 c0 -18 9 -29 38 -44 250 -126 900 -233 1720 -282
174 -10 197 -10 237 5 56 22 99 70 85 96 -8 15 -28 19 -147 25 -704 34 -1005
61 -1353 121 -216 37 -401 86 -522 138 -22 9 -38 12 -38 6z"/>
<path d="M987 1403 c-4 -3 -7 -10 -7 -15 0 -4 198 -8 440 -8 384 0 440 2 440
15 0 13 -55 15 -433 15 -239 0 -437 -3 -440 -7z"/>
<path d="M1037 1334 c-4 -4 -4 -11 -1 -15 3 -5 183 -9 400 -9 344 0 394 2 394
15 0 13 -50 15 -393 15 -217 0 -397 -3 -400 -6z"/>
<path d="M1820 1285 c0 -13 -49 -15 -362 -17 -234 -2 -363 -7 -363 -13 0 -6
126 -11 354 -13 308 -2 352 -4 347 -17 -17 -45 280 -160 604 -233 313 -71 973
-162 1085 -150 51 6 131 43 139 64 3 9 2 23 -3 33 -8 15 -35 19 -163 30 -705
55 -1307 170 -1560 297 -77 39 -78 39 -78 19z"/>
<path d="M1167 1193 c-4 -3 -7 -10 -7 -15 0 -4 140 -8 310 -8 269 0 310 2 310
15 0 13 -40 15 -303 15 -167 0 -307 -3 -310 -7z"/>
<path d="M1237 1123 c-20 -20 15 -23 249 -23 238 0 255 -1 252 -17 -3 -16 -23
-18 -212 -23 -155 -4 -210 -8 -214 -17 -3 -10 40 -13 193 -13 193 0 198 0 215
-23 10 -12 58 -43 106 -69 191 -99 469 -186 829 -259 180 -37 210 -40 305 -36
130 6 180 21 180 53 0 13 -4 25 -9 28 -4 3 -87 17 -182 31 -345 52 -700 133
-904 207 -141 51 -286 126 -293 150 -4 17 -21 18 -256 18 -139 0 -256 -3 -259
-7z"/>
<path d="M1407 983 c-20 -19 6 -23 135 -21 102 2 143 6 146 16 3 9 -29 12
-135 12 -77 0 -143 -3 -146 -7z"/>
<path d="M1507 914 c-15 -16 9 -24 69 -24 65 0 76 -7 49 -34 -8 -8 -15 -17
-15 -21 0 -12 225 -113 330 -148 112 -37 258 -71 355 -82 82 -10 62 5 -50 39
-228 68 -451 166 -548 240 -44 33 -53 36 -115 36 -38 0 -72 -3 -75 -6z"/>
</g>
</svg>
