<svg version="1.1" id="Layer_1" xmlns="http://www.w3.org/2000/svg" xmlns:xlink="http://www.w3.org/1999/xlink" x="0px" y="0px"
	 width="100%" viewBox="0 0 250 250" enable-background="new 0 0 250 250" xml:space="preserve">
<path fill="#161616" opacity="1.000000" stroke="none" 
	d="
M251.000000,96.000000 
	C251.000000,115.687561 251.000000,135.375122 250.639587,155.606689 
	C249.682571,157.441849 248.893417,158.679626 248.518433,160.032211 
	C243.336426,178.723892 234.406281,195.517426 221.468262,209.838898 
	C203.571533,229.649368 181.748016,243.227600 155.242828,248.616318 
	C154.049667,248.858887 153.075943,250.180832 152.000000,251.000000 
	C134.979111,251.000000 117.958214,251.000000 100.387840,250.632996 
	C99.014542,249.841553 98.235443,249.220779 97.360344,249.021454 
	C75.605247,244.066147 56.271126,234.324509 39.830009,219.242859 
	C24.024767,204.744522 12.526291,187.328400 5.764863,166.854706 
	C4.531257,163.119339 2.605984,159.612396 1.000000,156.000000 
	C1.000000,136.312439 1.000000,116.624878 1.360468,96.393311 
	C2.149446,95.197906 2.782144,94.602127 2.976974,93.887054 
	C10.170504,67.484840 24.062046,45.428005 45.369381,28.110399 
	C60.410091,15.886015 77.303871,7.581378 96.260475,3.435597 
	C97.619530,3.138373 98.758629,1.835359 100.000000,1.000000 
	C117.020897,1.000000 134.041794,1.000000 151.612228,1.367064 
	C152.988754,2.155855 153.771790,2.775377 154.649155,2.970370 
	C176.387787,7.801666 195.601074,17.651667 212.017380,32.618488 
	C227.909622,47.107513 239.445923,64.578911 246.227020,85.113365 
	C247.463989,88.859154 249.391342,92.376953 251.000000,96.000000 
M132.965378,90.522217 
	C132.965378,87.258354 132.965378,83.994492 132.965378,80.757545 
	C143.357346,80.596153 149.893906,85.281555 152.578842,94.309547 
	C154.487656,100.727867 157.578659,103.923065 162.914032,102.966507 
	C170.998535,101.517075 178.896866,99.029251 186.871841,96.983238 
	C181.644424,78.152061 158.496552,57.002960 142.706161,56.539490 
	C142.606567,58.126957 142.502899,59.733814 142.405731,61.341064 
	C142.310715,62.913029 142.222351,64.485397 142.131516,66.049744 
	C132.995392,65.556709 132.995407,65.556709 132.965439,59.900532 
	C132.925140,52.296215 132.925125,52.296307 125.252609,52.326832 
	C124.586365,52.329483 123.917908,52.365738 123.254219,52.325222 
	C120.184250,52.137844 118.477821,53.271568 118.797760,56.642120 
	C118.938782,58.127666 118.671684,59.655666 118.849167,61.133251 
	C119.204971,64.095505 117.966866,65.450089 115.031914,65.580841 
	C113.281334,65.658821 111.542313,65.996117 109.514618,66.252716 
	C109.297142,62.551720 109.115532,59.461140 108.933388,56.361454 
	C91.765144,58.035671 67.239815,80.994858 65.289719,97.310562 
	C67.816368,97.542130 70.342590,97.773659 73.019562,98.019005 
	C73.019562,99.053917 73.091263,99.707565 73.009094,100.341248 
	C70.874367,116.804245 81.482155,126.813301 92.314980,130.512466 
	C99.517281,132.971893 107.036751,134.580032 114.501266,136.157471 
	C117.671967,136.827515 118.988213,137.889679 118.863617,141.298691 
	C118.608276,148.285019 118.789299,155.287292 118.790359,162.282990 
	C118.790771,165.001602 118.790421,167.720230 118.790421,170.455505 
	C107.545723,169.938568 102.119370,165.941498 98.576103,156.235001 
	C96.560822,150.714294 92.736969,147.327957 87.919968,148.313202 
	C80.186768,149.894897 72.632713,152.352448 65.074715,154.420227 
	C68.707893,172.559113 92.839767,194.904465 108.923325,195.331787 
	C109.163673,192.009735 109.405670,188.665009 109.645004,185.357040 
	C118.774826,185.896942 118.775070,185.896942 118.841370,193.819687 
	C118.846947,194.485901 118.570328,195.383179 118.899170,195.776001 
	C119.970757,197.056000 121.166573,199.035217 122.484589,199.178223 
	C132.708130,200.287384 132.859634,200.174210 132.911209,190.184387 
	C132.927917,186.950012 133.935165,185.594284 137.148270,185.688492 
	C138.709610,185.734268 140.281998,185.403046 142.064957,185.220398 
	C142.382904,189.063263 142.658279,192.391556 142.940048,195.797089 
	C162.960022,191.745987 186.372498,168.959381 186.345978,153.927704 
	C183.661209,153.663452 180.951660,153.396774 178.253204,153.131165 
	C179.796112,135.972260 173.400146,125.175911 157.671829,119.257774 
	C151.025757,116.757034 143.932892,115.372162 136.965424,113.831230 
	C134.044449,113.185226 132.740692,112.221260 132.889511,109.000465 
	C133.158310,103.183144 132.965439,97.344475 132.965378,90.522217 
z"/>
<path fill="#000000" opacity="1.000000" stroke="none" 
	d="
M99.531342,1.000000 
	C98.758629,1.835359 97.619530,3.138373 96.260475,3.435597 
	C77.303871,7.581378 60.410091,15.886015 45.369381,28.110399 
	C24.062046,45.428005 10.170504,67.484840 2.976974,93.887054 
	C2.782144,94.602127 2.149446,95.197906 1.360468,95.924652 
	C1.000000,64.404892 1.000000,32.809792 1.000000,1.000000 
	C33.687248,1.000000 66.374962,1.000000 99.531342,1.000000 
z"/>
<path fill="#000000" opacity="1.000000" stroke="none" 
	d="
M1.000000,156.468658 
	C2.605984,159.612396 4.531257,163.119339 5.764863,166.854706 
	C12.526291,187.328400 24.024767,204.744522 39.830009,219.242859 
	C56.271126,234.324509 75.605247,244.066147 97.360344,249.021454 
	C98.235443,249.220779 99.014542,249.841553 99.919182,250.632996 
	C67.074577,251.000000 34.149158,251.000000 1.000000,251.000000 
	C1.000000,219.646133 1.000000,188.291718 1.000000,156.468658 
z"/>
<path fill="#000000" opacity="1.000000" stroke="none" 
	d="
M251.000000,95.531342 
	C249.391342,92.376953 247.463989,88.859154 246.227020,85.113365 
	C239.445923,64.578911 227.909622,47.107513 212.017380,32.618488 
	C195.601074,17.651667 176.387787,7.801666 154.649155,2.970370 
	C153.771790,2.775377 152.988754,2.155855 152.080887,1.367064 
	C184.925415,1.000000 217.850845,1.000000 251.000000,1.000000 
	C251.000000,32.353874 251.000000,63.708279 251.000000,95.531342 
z"/>
<path fill="#000000" opacity="1.000000" stroke="none" 
	d="
M152.468658,251.000000 
	C153.075943,250.180832 154.049667,248.858887 155.242828,248.616318 
	C181.748016,243.227600 203.571533,229.649368 221.468262,209.838898 
	C234.406281,195.517426 243.336426,178.723892 248.518433,160.032211 
	C248.893417,158.679626 249.682571,157.441849 250.639587,156.075348 
	C251.000000,187.595093 251.000000,219.190201 251.000000,251.000000 
	C218.312759,251.000000 185.625031,251.000000 152.468658,251.000000 
z"/>
<path fill="#FCFCFC" opacity="1.000000" stroke="none" 
	d="
M132.965378,91.018471 
	C132.965439,97.344475 133.158310,103.183144 132.889511,109.000465 
	C132.740692,112.221260 134.044449,113.185226 136.965424,113.831230 
	C143.932892,115.372162 151.025757,116.757034 157.671829,119.257774 
	C173.400146,125.175911 179.796112,135.972260 178.253204,153.131165 
	C180.951660,153.396774 183.661209,153.663452 186.345978,153.927704 
	C186.372498,168.959381 162.960022,191.745987 142.940048,195.797089 
	C142.658279,192.391556 142.382904,189.063263 142.064957,185.220398 
	C140.281998,185.403046 138.709610,185.734268 137.148270,185.688492 
	C133.935165,185.594284 132.927917,186.950012 132.911209,190.184387 
	C132.859634,200.174210 132.708130,200.287384 122.484589,199.178223 
	C121.166573,199.035217 119.970757,197.056000 118.899170,195.776001 
	C118.570328,195.383179 118.846947,194.485901 118.841370,193.819687 
	C118.775070,185.896942 118.774826,185.896942 109.645004,185.357040 
	C109.405670,188.665009 109.163673,192.009735 108.923325,195.331787 
	C92.839767,194.904465 68.707893,172.559113 65.074715,154.420227 
	C72.632713,152.352448 80.186768,149.894897 87.919968,148.313202 
	C92.736969,147.327957 96.560822,150.714294 98.576103,156.235001 
	C102.119370,165.941498 107.545723,169.938568 118.790421,170.455505 
	C118.790421,167.720230 118.790771,165.001602 118.790359,162.282990 
	C118.789299,155.287292 118.608276,148.285019 118.863617,141.298691 
	C118.988213,137.889679 117.671967,136.827515 114.501266,136.157471 
	C107.036751,134.580032 99.517281,132.971893 92.314980,130.512466 
	C81.482155,126.813301 70.874367,116.804245 73.009094,100.341248 
	C73.091263,99.707565 73.019562,99.053917 73.019562,98.019005 
	C70.342590,97.773659 67.816368,97.542130 65.289719,97.310562 
	C67.239815,80.994858 91.765144,58.035671 108.933388,56.361454 
	C109.115532,59.461140 109.297142,62.551720 109.514618,66.252716 
	C111.542313,65.996117 113.281334,65.658821 115.031914,65.580841 
	C117.966866,65.450089 119.204971,64.095505 118.849167,61.133251 
	C118.671684,59.655666 118.938782,58.127666 118.797760,56.642120 
	C118.477821,53.271568 120.184250,52.137844 123.254219,52.325222 
	C123.917908,52.365738 124.586365,52.329483 125.252609,52.326832 
	C132.925125,52.296307 132.925140,52.296215 132.965439,59.900532 
	C132.995407,65.556709 132.995392,65.556709 142.131516,66.049744 
	C142.222351,64.485397 142.310715,62.913029 142.405731,61.341064 
	C142.502899,59.733814 142.606567,58.126957 142.706161,56.539490 
	C158.496552,57.002960 181.644424,78.152061 186.871841,96.983238 
	C178.896866,99.029251 170.998535,101.517075 162.914032,102.966507 
	C157.578659,103.923065 154.487656,100.727867 152.578842,94.309547 
	C149.893906,85.281555 143.357346,80.596153 132.965378,80.757545 
	C132.965378,83.994492 132.965378,87.258354 132.965378,91.018471 
M103.484314,105.015472 
	C108.185135,107.144234 112.885948,109.272987 118.778030,111.941208 
	C118.778030,100.851112 118.826759,91.591682 118.677078,82.335464 
	C118.666183,81.661339 117.156250,80.379601 116.444481,80.447144 
	C109.874634,81.070534 104.101326,83.345451 100.652321,89.444389 
	C97.771896,94.537910 98.543121,99.150803 103.484314,105.015472 
M133.085175,169.673309 
	C137.702927,171.264328 144.815689,168.793243 148.791306,164.120483 
	C152.578781,159.668839 153.660522,154.634033 151.043823,149.306854 
	C147.451889,141.994263 140.568451,140.541122 132.942581,139.242432 
	C132.942581,149.584351 132.942581,159.198944 133.085175,169.673309 
z"/>
<path fill="#1E1E1E" opacity="1.000000" stroke="none" 
	d="
M103.213486,104.766228 
	C98.543121,99.150803 97.771896,94.537910 100.652321,89.444389 
	C104.101326,83.345451 109.874634,81.070534 116.444481,80.447144 
	C117.156250,80.379601 118.666183,81.661339 118.677078,82.335464 
	C118.826759,91.591682 118.778030,100.851112 118.778030,111.941208 
	C112.885948,109.272987 108.185135,107.144234 103.213486,104.766228 
z"/>
<path fill="#191919" opacity="1.000000" stroke="none" 
	d="
M133.013885,169.243408 
	C132.942581,159.198944 132.942581,149.584351 132.942581,139.242432 
	C140.568451,140.541122 147.451889,141.994263 151.043823,149.306854 
	C153.660522,154.634033 152.578781,159.668839 148.791306,164.120483 
	C144.815689,168.793243 137.702927,171.264328 133.013885,169.243408 
z"/>
</svg>