<svg xmlns="http://www.w3.org/2000/svg" width="256" height="256" fill="none"><rect width="256" height="256" fill="url(#a)" rx="128" style="fill:url(#a);stroke-width:8"/><rect width="256" height="256" fill="url(#b)" fill-opacity=".66" rx="128" style="fill:url(#b);stroke-width:8"/><path fill="#d7cdff" fill-rule="evenodd" d="M187.547 185.25a2.416 2.416 0 0 1-1.123 2.39l-57.473 35.44a2.409 2.409 0 0 1-2.529.003l-57.008-34.997a2.416 2.416 0 0 1-1.151-2.066c0-.072.003-.147.008-.219-.008-.08-.008-.153-.008-.23l-.003-43.726c0-.056.003-.105.006-.156a2.41 2.41 0 0 1 3.617-2.243l56.02 32.512 55.502-32.198c.09-.056.185-.1.28-.141a2.415 2.415 0 0 1 3.883 1.912l.004 43.38c0 .117-.008.229-.024.34zm-114.46-3.496 16.558-10.005-16.561-22.794zm19.404-6.085a133267.13 133267.13 0 0 0-17.178 10.376l44.616 27.392zm43.722 37.265 44.306-27.322-17.12-10.294zm30.023-41.541 16.51 9.927-.002-32.768zm-39.546 5.44-47.36-27.489 48.568 66.856 48.117-66.578-46.904 27.21a2.415 2.415 0 0 1-2.42 0zm-56.1-46.724a2.418 2.418 0 0 1-2.333-2.413l-.005-56.834c0-.142.016-.281.04-.415a2.218 2.218 0 0 1-.04-.4 2.412 2.412 0 0 1 1.151-2.065l57.476-35.25a2.406 2.406 0 0 1 2.516-.003l57.01 34.805a2.418 2.418 0 0 1 1.156 2.066c0 .04-.003.072-.003.105 0 .04.003.072.003.111l.005 57.582c0 1.018-.634 1.89-1.525 2.244l-56.979 31.344a2.416 2.416 0 0 1-2.326 0zm2.488-55.806.003 45.732 20.497-33.407zm109.66-.434-20.69 12.5 20.693 33.725zm-23.213 8.387L180.5 69.583 134.523 41.51Zm-38.59-40.22-45.622 27.98 20.788 12.5zM74.59 126.803l53.308 29.315 53.297-29.317-53.306-86.875z" clip-rule="evenodd" style="stroke-width:8"/><defs><linearGradient id="a" x1="2.217" x2="29.933" y1="21.023" y2="10.944" gradientTransform="matrix(8 0 0 8 0 0)" gradientUnits="userSpaceOnUse"><stop stop-color="#29BCFA"/><stop offset=".43" stop-color="#6464E4"/><stop offset="1" stop-color="#B45AFA"/></linearGradient><linearGradient id="b" x1="17" x2="16" y1="-2" y2="32" gradientTransform="matrix(8 0 0 8 0 0)" gradientUnits="userSpaceOnUse"><stop stop-color="#33117B" stop-opacity="0"/><stop offset=".827" stop-color="#33117B"/></linearGradient></defs></svg>