<?xml version="1.0" standalone="no"?>
<!DOCTYPE svg PUBLIC "-//W3C//DTD SVG 20010904//EN"
 "http://www.w3.org/TR/2001/REC-SVG-20010904/DTD/svg10.dtd">
<svg version="1.0" xmlns="http://www.w3.org/2000/svg"
 width="1024.000000pt" height="1024.000000pt" viewBox="0 0 1024.000000 1024.000000"
 preserveAspectRatio="xMidYMid meet">

<g transform="translate(0.000000,1024.000000) scale(0.100000,-0.100000)"
fill="#000000" stroke="none">
<path d="M0 5120 l0 -5120 5120 0 5120 0 0 5120 0 5120 -5120 0 -5120 0 0
-5120z m8110 1929 l358 -260 -14 -42 c-7 -23 -88 -271 -179 -552 -92 -280
-167 -510 -168 -511 -1 -1 -237 -119 -525 -263 -324 -162 -522 -266 -519 -274
2 -7 158 -125 346 -264 189 -138 345 -254 349 -257 3 -3 -79 -269 -183 -590
l-189 -585 -528 -260 -529 -261 -2029 0 c-1117 0 -2030 3 -2030 6 0 10 1080
3398 1085 3402 2 2 681 -498 723 -533 1 -1 -144 -457 -323 -1014 -179 -557
-325 -1017 -325 -1022 0 -5 640 -9 1583 -9 l1583 0 177 545 c98 300 180 552
183 560 5 13 -133 15 -1125 15 -622 0 -1131 4 -1131 8 0 5 47 156 105 336 58
180 105 329 105 332 0 2 510 4 1134 4 l1135 0 77 238 c42 130 109 338 149 462
l72 225 -2820 5 -2820 5 549 408 548 407 2409 0 2408 0 359 -261z"/>
</g>
</svg>
