<?xml version="1.0" standalone="no"?>
<!DOCTYPE svg PUBLIC "-//W3C//DTD SVG 20010904//EN"
 "http://www.w3.org/TR/2001/REC-SVG-20010904/DTD/svg10.dtd">
<svg version="1.0" xmlns="http://www.w3.org/2000/svg"
 width="460.000000pt" height="460.000000pt" viewBox="0 0 460.000000 460.000000"
 preserveAspectRatio="xMidYMid meet">

<g transform="translate(0.000000,460.000000) scale(0.100000,-0.100000)"
fill="#000000" stroke="none">
<path d="M2014 4575 c-230 -31 -473 -102 -692 -202 -125 -57 -351 -198 -452
-282 -102 -86 -125 -106 -190 -171 -65 -65 -85 -88 -171 -190 -165 -197 -341
-538 -409 -790 -67 -249 -90 -412 -90 -640 0 -340 70 -655 217 -978 57 -125
198 -351 282 -452 86 -102 106 -125 171 -190 65 -65 88 -85 190 -171 197 -164
536 -340 790 -409 230 -62 426 -90 640 -90 397 0 795 105 1128 297 165 95 241
149 392 278 201 172 393 423 526 685 162 322 244 666 244 1030 0 402 -103 791
-297 1128 -95 165 -150 242 -278 392 -172 201 -423 393 -685 526 -232 117
-486 194 -754 230 -132 17 -433 17 -562 -1z m445 -665 c36 -6 98 -15 136 -21
94 -15 321 -91 420 -141 75 -38 144 -81 260 -161 28 -19 93 -78 146 -130 188
-185 306 -368 392 -608 76 -209 91 -298 91 -549 1 -250 -13 -335 -91 -550 -40
-112 -59 -152 -134 -288 -68 -122 -290 -370 -399 -445 -140 -97 -182 -123
-250 -157 -295 -148 -623 -207 -930 -166 -116 16 -133 19 -235 48 -269 75
-510 215 -703 407 -234 233 -399 535 -451 826 -7 39 -17 92 -22 118 -5 26 -9
55 -9 62 0 13 158 15 1200 15 l1200 0 0 130 0 130 -1200 0 c-993 0 -1200 2
-1200 13 0 14 12 83 31 187 19 98 86 294 131 383 182 362 502 654 863 791 136
51 140 53 220 71 175 41 400 56 534 35z"/>
</g>
</svg>
