<?xml version="1.0" standalone="no"?>
<!DOCTYPE svg PUBLIC "-//W3C//DTD SVG 20010904//EN"
 "http://www.w3.org/TR/2001/REC-SVG-20010904/DTD/svg10.dtd">
<svg version="1.0" xmlns="http://www.w3.org/2000/svg"
 width="64.000000pt" height="64.000000pt" viewBox="0 0 64.000000 64.000000"
 preserveAspectRatio="xMidYMid meet">

<g transform="translate(0.000000,64.000000) scale(0.100000,-0.100000)"
fill="#000000" stroke="none">
<path d="M252 535 c-62 -19 -106 -57 -136 -117 l-27 -53 43 -6 c24 -3 57 -14
74 -24 l32 -19 43 29 c60 40 103 39 157 -4 45 -35 51 -51 27 -71 -12 -10 -21
-6 -52 19 -46 38 -57 38 -104 5 -47 -32 -100 -34 -140 -5 -33 24 -52 26 -68 7
-12 -14 -5 -42 21 -93 15 -29 23 -29 60 2 36 31 92 33 128 5 32 -25 46 -25 77
0 28 22 82 26 113 10 24 -13 38 9 46 73 6 45 -17 140 -37 153 -5 3 -22 -4 -38
-15 -37 -27 -91 -27 -124 -1 -34 27 -50 25 -90 -10 l-34 -30 -19 21 c-19 21
-19 22 19 54 55 47 81 51 140 20 47 -24 51 -25 74 -10 33 22 17 40 -50 60 -60
18 -78 18 -135 0z"/>
<path d="M211 159 c-21 -17 -22 -22 -10 -33 21 -20 77 -36 124 -36 43 0 146
45 152 66 7 22 -30 24 -63 3 -44 -27 -96 -27 -130 0 -33 26 -42 26 -73 0z"/>
</g>
</svg>
