    <svg
      xmlns="http://www.w3.org/2000/svg"
      width="18"
      height="18"
      viewBox="0 0 18 18"
      fill="none"
    >
      <g clipPath="url(#clip0_4250_30016)">
        <path
          d="M9 18C13.9706 18 18 13.9706 18 9C18 4.02944 13.9706 0 9 0C4.02944 0 0 4.02944 0 9C0 13.9706 4.02944 18 9 18Z"
          fill="url(#paint0_linear_4250_30016)"
        />
        <path
          d="M12.9391 12.5861L9.89579 5.22833C9.72414 4.84792 9.46899 4.66235 9.13265 4.66235H8.86358C8.52724 4.66235 8.27208 4.84792 8.10043 5.22833L6.77595 8.43401H5.77389C5.47466 8.43633 5.2311 8.67757 5.22878 8.97911V8.98607C5.2311 9.2853 5.47466 9.52886 5.77389 9.53118H6.31203L5.04786 12.5861C5.02466 12.6533 5.01074 12.7229 5.01074 12.7948C5.01074 12.9665 5.06409 13.101 5.1592 13.2054C5.2543 13.3098 5.39115 13.3608 5.5628 13.3608C5.67646 13.3585 5.78548 13.3237 5.87595 13.2564C5.97337 13.1892 6.04064 13.0917 6.09399 12.9804L7.48574 9.52886H8.45069C8.74992 9.52654 8.99347 9.2853 8.99579 8.98375V8.96983C8.99347 8.67061 8.74992 8.42705 8.45069 8.42473H7.93574L8.99811 5.77808L11.893 12.9781C11.9463 13.0894 12.0136 13.1869 12.111 13.2541C12.2015 13.3214 12.3128 13.3562 12.4241 13.3585C12.5958 13.3585 12.7303 13.3075 12.8277 13.2031C12.9252 13.0987 12.9762 12.9642 12.9762 12.7925C12.9785 12.7229 12.9669 12.651 12.9391 12.5861Z"
          fill="white"
        />
      </g>
      <defs>
        <linearGradient
          id="paint0_linear_4250_30016"
          x1="15.1875"
          y1="2.25"
          x2="2.25"
          y2="15.1875"
          gradientUnits="userSpaceOnUse"
        >
          <stop stop-color="#B6519F" />
          <stop offset="1" stop-color="#31B8C6" />
        </linearGradient>
        <clipPath id="clip0_4250_30016">
          <rect width="18" height="18" fill="white" />
        </clipPath>
      </defs>
    </svg>