<svg fill="none" height="56" viewBox="0 0 53 56" width="53" xmlns="http://www.w3.org/2000/svg" xmlns:xlink="http://www.w3.org/1999/xlink"><mask id="a" fill="#fff"><path d="m46.1947 16.5122c-3.8329-6.1207-10.6342-10.18673-18.383-10.18673-11.9701 0-21.67373 9.70363-21.67373 21.67373 0 11.97 9.70363 21.6737 21.67373 21.6737 7.7488 0 14.5501-4.0661 18.383-10.1868l.4568-.6501.2322-.4489 1.3951.5921c-.2023.3763-.4147.7464-.6368 1.11-4.0789 6.6759-11.4342 11.1318-19.8303 11.1318-12.8251 0-23.22186-10.3967-23.22186-23.2218s10.39676-23.22186 23.22186-23.22186c8.3961 0 15.7514 4.45588 19.8303 11.13186.2198.3598.4302.7261.6306 1.0984l-1.4354.5882-.1857-.4335z" fill="#fff"/></mask><path clip-rule="evenodd" d="m52.7867 15.1212-30.9076 12.8782 30.9156 12.8815c-4.6492 8.9109-13.9749 14.9941-24.7215 14.9941-15.39 0-27.866169-12.4761-27.866169-27.8662s12.476169-27.866222 27.866169-27.866222c10.7404 0 20.0615 6.076222 24.7135 14.978622z" fill="#b2e810" fill-rule="evenodd"/><path d="m46.1947 16.5122-1.3121.8217.0218.0348.0236.0335zm0 22.9739-1.2667-.8899-.0236.0335-.0218.0348zm1.4473.6031-1.3211-.8072zm0-24.18-1.3211.8071zm-.9905 1.2531 1.4229-.6098-.0635-.1482-.0927-.1319zm.1857.4335-1.4229.6098.6001 1.4004 1.4098-.5777zm1.4416 21.3834 1.3636.733.8037-1.495-1.5625-.6631zm-1.6273-.1432 1.2667.89.0602-.0857.0481-.093zm.2322-.4489.6048-1.4251-1.3207-.5605-.6592 1.2743zm1.3889-21.3795.587 1.4326 1.5914-.6521-.8152-1.5143zm-20.4609-9.13401c7.1937 0 13.5093 3.77271 17.0709 9.46031l2.6242-1.6433c-4.1041-6.55387-11.3912-10.91326-19.6951-10.91326zm-20.12561 20.12561c0-11.1151 9.01051-20.12561 20.12561-20.12561v-3.09625c-12.8251 0-23.22186 10.39676-23.22186 23.22186zm20.12561 20.1256c-11.1151 0-20.12561-9.0106-20.12561-20.1256h-3.09625c0 12.825 10.39676 23.2218 23.22186 23.2218zm17.0709-9.4603c-3.5616 5.6875-9.8772 9.4603-17.0709 9.4603v3.0962c8.3039 0 15.591-4.3594 19.6951-10.9132zm1.4383.6175c-3.8094 6.235-10.6747 10.3909-18.5092 10.3909v3.0962c8.9576 0 16.803-4.7558 21.1514-11.8728zm-18.5092 10.3909c-11.9701 0-21.67373-9.7037-21.67373-21.6737h-3.09625c0 13.6801 11.08988 24.7699 24.76998 24.7699zm-21.67373-21.6737c0-11.9701 9.70363-21.67373 21.67373-21.67373v-3.09625c-13.6801 0-24.76998 11.08988-24.76998 24.76998zm21.67373-21.67373c7.8345 0 14.6998 4.15593 18.5092 10.39083l2.6422-1.6142c-4.3484-7.11704-12.1938-11.87288-21.1514-11.87288zm17.1163 11.07673.4567.6501 2.5335-1.7799-.4567-.6501zm.3005.37.1858.4334 2.8459-1.2196-.1858-.4335zm1.6868 20.4739c-.1888.3512-.3871.6966-.5944 1.0359l2.6422 1.6143c.2369-.3878.4635-.7826.6793-1.1841zm-1.5306-.3-.4567.6501 2.5335 1.7799.4567-.6501zm3.4989-.392-1.3951-.5921-1.2096 2.8502 1.3951.5921zm-3.375.1217-.2322.449 2.7501 1.4225.2322-.449zm.8123-20.9595c.2052.3359.4015.6777.5886 1.0252l2.7263-1.4677c-.2139-.3972-.4382-.7879-.6727-1.1717zm1.3647-1.1412-1.4354.5882 1.174 2.865 1.4354-.5881z" fill="#000" mask="url(#a)"/></svg>