    <svg
      xmlns="http://www.w3.org/2000/svg"
      width="16"
      height="16"
      viewBox="0 0 16 16"
      fill="none"
    >
      <mask
        id="mask0_4250_29951"
        maskUnits="userSpaceOnUse"
        x="0"
        y="0"
        width="16"
        height="16"
      >
        <path d="M15.3125 0.6875H0.6875V15.3125H15.3125V0.6875Z" fill="white" />
      </mask>
      <g mask="url(#mask0_4250_29951)">
        <mask
          id="mask1_4250_29951"
          maskUnits="userSpaceOnUse"
          x="0"
          y="0"
          width="16"
          height="16"
        >
          <path
            d="M15.3125 0.6875H0.6875V15.3125H15.3125V0.6875Z"
            fill="white"
          />
        </mask>
        <g mask="url(#mask1_4250_29951)">
          <path
            d="M9.45232 1.26596L9.84215 2.18396C10.6092 3.96964 12.0302 5.40322 13.8285 6.17031L14.7465 6.56014C14.9854 6.66074 15.1741 6.81164 15.325 6.9877C14.8722 3.73071 12.2943 1.15279 9.03734 0.700077C9.20082 0.838404 9.35172 1.02703 9.45232 1.26596ZM1.26584 6.54756L2.18383 6.15773C3.96952 5.39064 5.40309 3.96964 6.17018 2.17138L6.56002 1.25339C6.64804 1.02703 6.79895 0.82583 6.98757 0.674927C3.73059 1.12764 1.15266 3.70556 0.699956 6.96255C0.838283 6.79907 1.02691 6.64816 1.26584 6.54756ZM14.7339 9.45244L13.8159 9.84227C12.0302 10.6094 10.5967 12.0304 9.82958 13.8286L9.43974 14.734C9.35172 14.9604 9.20081 15.1616 9.01219 15.3125C12.2692 14.8598 14.8471 12.2819 15.2998 9.02488C15.1615 9.21351 14.9603 9.36441 14.7339 9.45244ZM6.54744 14.734L6.15761 13.8286C5.39052 12.0429 3.96952 10.6094 2.17126 9.84227L1.25327 9.45244C1.02691 9.36441 0.825708 9.21351 0.674805 9.02488C1.12751 12.2819 3.70544 14.8598 6.96242 15.3125C6.78637 15.1616 6.64804 14.9604 6.54744 14.734Z"
            fill="#9A9A9A"
          />
        </g>
        <path
          d="M4.68642 7.28949L5.13912 7.10086C6.01939 6.7236 6.7236 6.01939 7.10086 5.13912L7.28949 4.68642C7.55357 4.05765 8.44641 4.05765 8.72307 4.68642L8.9117 5.13912C9.28895 6.01939 9.99316 6.7236 10.8734 7.10086L11.3261 7.28949C11.9549 7.55357 11.9549 8.44641 11.3261 8.72307L10.8734 8.9117C9.99316 9.28895 9.28895 9.99316 8.9117 10.8734L8.72307 11.3261C8.45899 11.9549 7.56614 11.9549 7.28949 11.3261L7.10086 10.8734C6.7236 9.99316 6.01939 9.28895 5.13912 8.9117L4.68642 8.72307C4.05765 8.44641 4.05765 7.55357 4.68642 7.28949Z"
          fill="black"
        />
      </g>
    </svg>