<svg xmlns="http://www.w3.org/2000/svg" version="1.0" viewBox="0 0 150 150"><path d="M62.1 4C30 10.8 7 35.5 3 67.4c-2.7 21.8-.2 33.3 10.7 49.8 9.2 14 26.3 26.1 43.3 30.5 8.8 2.4 27.2 2.3 36 0 27.5-7.3 49.4-30.1 54.4-56.5 1.4-7.6.4-23.5-2-33.2-6.2-24.6-25-44.2-49.9-52-7.9-2.5-26-3.5-33.4-2zM54 20.4c0 1.8-1.4 3.1-6.4 6.1-12 7-21 18-25.7 31.5-3.2 9.2-3.2 23.7-.2 33.5 4.1 13 13.3 24.5 25.5 31.7 5.4 3.2 6.8 4.5 6.8 6.4 0 3.4-2.4 3.1-9.9-1.4-7.8-4.5-17.4-14-21.9-21.4-14.6-24.5-10.8-55 9.3-75.2C37.6 25.4 49 18 52.2 18c1.2 0 1.8.8 1.8 2.4zm51.8 1.2c20.7 11.6 33.5 37 30.3 60.4-2.7 19.9-13.5 36.5-30.2 46.2-7.5 4.5-9.9 4.8-9.9 1.4 0-1.9 1.2-3.1 5.7-5.6 11.9-6.8 21.8-18.7 26.4-32 2.9-8.5 3.1-23.7.5-32.5-3.8-13.1-14.7-26.6-26.9-33.5-4.5-2.5-5.7-3.7-5.7-5.6 0-3.3 2.1-3.1 9.8 1.2zM86.9 43.5 98.2 63h6.5c6.4 0 6.4 0 6.1 2.7l-.3 2.8h-71l-.3-2.8c-.3-2.7-.3-2.7 6.1-2.7h6.5l11.3-19.5C69.4 32.8 74.7 24 75 24c.3 0 5.6 8.8 11.9 19.5zM110.5 84c0 2.4-.4 2.5-6.4 3l-6.4.5-11.1 19.2c-6.1 10.6-11.3 19.2-11.6 19.2-.3 0-5.5-8.6-11.6-19.2L52.3 87.5l-6.2-.3c-6.3-.3-8-1.5-6.7-4.7.5-1.3 5.1-1.5 35.8-1.3l35.3.3V84z"/><path d="M68.2 49.9c-3.4 6-6.2 11.4-6.2 12 0 .7 4.3 1.1 13 1.1 9.1 0 13-.3 13-1.1 0-1.4-12.2-22.8-13-22.9-.3 0-3.3 4.9-6.8 10.9zM63 90.7c1.2 2.1 4.2 7.3 6.7 11.5 2.5 4.3 4.8 7.8 5.3 7.8s2.8-3.5 5.3-7.8c2.5-4.2 5.5-9.4 6.7-11.5l2.2-3.7H60.8l2.2 3.7z"/></svg>